<svg width="190" height="68" viewBox="0 0 190 68" fill="none" xmlns="http://www.w3.org/2000/svg">
<path d="M0 22.0121H12.228V67.2557H0V22.0121Z" fill="white"/>
<path d="M173.79 22.0121H186.018V67.2557H173.79V22.0121Z" fill="white"/>
<path d="M180.022 19.9563L182.601 17.3769C182.601 17.3769 184.277 15.5228 184.842 15.0021C189.119 10.7257 186.183 6.16101 185.045 5.02256C183.772 3.75018 179.275 0.746664 174.999 5.02301C171.578 8.44409 173.127 12.6092 174.33 14.2641L180.022 19.9563Z" fill="white"/>
<path fill-rule="evenodd" clip-rule="evenodd" d="M108.676 64.197V67.254H120.599V0H108.676V24.7617C106.944 23.8446 102.44 22.0104 98.2826 22.0104C93.0857 22.0104 75.9666 25.6788 75.9666 44.9379C75.9666 64.197 93.3914 67.254 98.2826 67.254C103.174 67.254 106.842 65.4198 108.676 64.197ZM98.2824 55.6381C104.192 55.6381 108.982 50.8477 108.982 44.9386C108.982 39.0294 104.192 34.2391 98.2824 34.2391C92.3733 34.2391 87.5829 39.0294 87.5829 44.9386C87.5829 50.8477 92.3733 55.6381 98.2824 55.6381Z" fill="white"/>
<path fill-rule="evenodd" clip-rule="evenodd" d="M156.977 64.197V67.254H168.899V0H156.977V24.7617C155.244 23.8446 150.74 22.0104 146.583 22.0104C141.386 22.0104 124.267 25.6788 124.267 44.9379C124.267 64.197 141.692 67.254 146.583 67.254C151.474 67.254 155.143 65.4198 156.977 64.197ZM146.583 55.6381C152.492 55.6381 157.282 50.8477 157.282 44.9386C157.282 39.0294 152.492 34.2391 146.583 34.2391C140.674 34.2391 135.883 39.0294 135.883 44.9386C135.883 50.8477 140.674 55.6381 146.583 55.6381Z" fill="white"/>
<path d="M13.7497 26.2971L16.1984 29.0009C16.1984 29.0009 17.9675 30.766 18.4596 31.3564C22.5193 35.839 27.2235 33.1327 28.4169 32.0519C29.7506 30.844 32.9728 26.5011 28.9131 22.0186C25.6654 18.4325 21.4288 19.7742 19.7165 20.8933L13.7497 26.2971Z" fill="white"/>
<path fill-rule="evenodd" clip-rule="evenodd" d="M61.4761 67.663H73.0519V41.7698C72.0365 35.2712 66.1674 22.2738 50.8143 22.2738C31.6229 22.2738 28.272 39.3328 28.272 45.1207C28.272 50.2993 31.9275 67.3584 51.1189 67.3584C53.5559 67.2568 61.4761 67.663 61.4761 67.663ZM50.8147 55.7823C56.7031 55.7823 61.4766 51.0089 61.4766 45.1205C61.4766 39.2321 56.7031 34.4586 50.8147 34.4586C44.9263 34.4586 40.1528 39.2321 40.1528 45.1205C40.1528 51.0089 44.9263 55.7823 50.8147 55.7823Z" fill="white"/>
</svg>
