<svg width="93" height="56" viewBox="0 0 93 56" fill="none" xmlns="http://www.w3.org/2000/svg">
<path d="M1 10.4854H6.82478V32.0371H1V10.4854Z" fill="#11142D"/>
<path d="M83.7846 10.4854H89.6094V32.0371H83.7846V10.4854Z" fill="#11142D"/>
<path d="M86.7531 9.50615L87.9818 8.27746C87.9818 8.27746 88.7799 7.39425 89.0492 7.14621C91.0862 5.10918 89.6879 2.93478 89.1456 2.39249C88.5395 1.78639 86.3974 0.355672 84.3604 2.3927C82.7308 4.02233 83.4688 6.00635 84.0416 6.79466L86.7531 9.50615Z" fill="#11142D"/>
<path fill-rule="evenodd" clip-rule="evenodd" d="M52.7677 30.5801V32.0363H58.4469V0H52.7677V11.7952C51.9425 11.3583 49.7971 10.4846 47.8166 10.4846C45.3411 10.4846 37.1864 12.232 37.1864 21.4061C37.1864 30.5801 45.4867 32.0363 47.8166 32.0363C50.1466 32.0363 51.894 31.1626 52.7677 30.5801ZM47.8165 26.5031C50.6313 26.5031 52.9131 24.2212 52.9131 21.4064C52.9131 18.5916 50.6313 16.3097 47.8165 16.3097C45.0016 16.3097 42.7198 18.5916 42.7198 21.4064C42.7198 24.2212 45.0016 26.5031 47.8165 26.5031Z" fill="#11142D"/>
<path fill-rule="evenodd" clip-rule="evenodd" d="M75.7756 30.5801V32.0363H81.4548V0H75.7756V11.7952C74.9505 11.3583 72.805 10.4846 70.8246 10.4846C68.349 10.4846 60.1943 12.232 60.1943 21.4061C60.1943 30.5801 68.4947 32.0363 70.8246 32.0363C73.1545 32.0363 74.9019 31.1626 75.7756 30.5801ZM70.8244 26.5031C73.6392 26.5031 75.921 24.2212 75.921 21.4064C75.921 18.5916 73.6392 16.3097 70.8244 16.3097C68.0095 16.3097 65.7277 18.5916 65.7277 21.4064C65.7277 24.2212 68.0095 26.5031 70.8244 26.5031Z" fill="#11142D"/>
<path d="M7.54974 12.5266L8.71618 13.8145C8.71618 13.8145 9.55885 14.6554 9.79326 14.9366C11.7271 17.0719 13.968 15.7827 14.5364 15.2679C15.1717 14.6925 16.7066 12.6238 14.7728 10.4885C13.2257 8.78033 11.2076 9.41942 10.392 9.9525L7.54974 12.5266Z" fill="#11142D"/>
<path fill-rule="evenodd" clip-rule="evenodd" d="M30.2841 32.2311H35.7982V19.897C35.3145 16.8014 32.5187 10.6101 25.2053 10.6101C16.0635 10.6101 14.4673 18.7361 14.4673 21.4932C14.4673 23.96 16.2086 32.086 25.3504 32.086C26.5113 32.0377 30.2841 32.2311 30.2841 32.2311ZM25.2055 26.5718C28.0104 26.5718 30.2843 24.298 30.2843 21.493C30.2843 18.6881 28.0104 16.4143 25.2055 16.4143C22.4006 16.4143 20.1267 18.6881 20.1267 21.493C20.1267 24.298 22.4006 26.5718 25.2055 26.5718Z" fill="#11142D"/>
<path d="M5.008 38.832C6.18133 38.832 7.21067 39.0613 8.096 39.52C8.992 39.9787 9.68 40.6347 10.16 41.488C10.6507 42.3307 10.896 43.312 10.896 44.432C10.896 45.552 10.6507 46.5333 10.16 47.376C9.68 48.208 8.992 48.8533 8.096 49.312C7.21067 49.7707 6.18133 50 5.008 50H1.104V38.832H5.008ZM4.928 48.096C6.10133 48.096 7.008 47.776 7.648 47.136C8.288 46.496 8.608 45.5947 8.608 44.432C8.608 43.2693 8.288 42.3627 7.648 41.712C7.008 41.0507 6.10133 40.72 4.928 40.72H3.344V48.096H4.928ZM18.4208 47.872H13.9728L13.2368 50H10.8848L14.9008 38.816H17.5088L21.5248 50H19.1568L18.4208 47.872ZM17.8128 46.08L16.1968 41.408L14.5807 46.08H17.8128ZM25.8819 50.112C25.1032 50.112 24.3992 49.9787 23.7699 49.712C23.1512 49.4453 22.6605 49.0613 22.2979 48.56C21.9352 48.0587 21.7485 47.4667 21.7379 46.784H24.1379C24.1699 47.2427 24.3299 47.6053 24.6179 47.872C24.9165 48.1387 25.3219 48.272 25.8339 48.272C26.3565 48.272 26.7672 48.1493 27.0659 47.904C27.3645 47.648 27.5139 47.3173 27.5139 46.912C27.5139 46.5813 27.4125 46.3093 27.2099 46.096C27.0072 45.8827 26.7512 45.7173 26.4419 45.6C26.1432 45.472 25.7272 45.3333 25.1939 45.184C24.4685 44.9707 23.8765 44.7627 23.4179 44.56C22.9699 44.3467 22.5805 44.032 22.2499 43.616C21.9299 43.1893 21.7699 42.624 21.7699 41.92C21.7699 41.2587 21.9352 40.6827 22.2659 40.192C22.5965 39.7013 23.0605 39.328 23.6579 39.072C24.2552 38.8053 24.9379 38.672 25.7059 38.672C26.8579 38.672 27.7912 38.9547 28.5059 39.52C29.2312 40.0747 29.6312 40.8533 29.7059 41.856H27.2419C27.2205 41.472 27.0552 41.1573 26.7459 40.912C26.4472 40.656 26.0472 40.528 25.5459 40.528C25.1085 40.528 24.7565 40.64 24.4899 40.864C24.2339 41.088 24.1059 41.4133 24.1059 41.84C24.1059 42.1387 24.2019 42.3893 24.3939 42.592C24.5965 42.784 24.8419 42.944 25.1299 43.072C25.4285 43.1893 25.8445 43.328 26.3779 43.488C27.1032 43.7013 27.6952 43.9147 28.1539 44.128C28.6125 44.3413 29.0072 44.6613 29.3379 45.088C29.6685 45.5147 29.8339 46.0747 29.8339 46.768C29.8339 47.3653 29.6792 47.92 29.3699 48.432C29.0605 48.944 28.6072 49.3547 28.0099 49.664C27.4125 49.9627 26.7032 50.112 25.8819 50.112ZM40.0399 38.832V50H37.7999V45.248H33.0159V50H30.7759V38.832H33.0159V43.424H37.7999V38.832H40.0399ZM47.5806 44.272C48.21 44.3893 48.7273 44.704 49.1326 45.216C49.538 45.728 49.7406 46.3147 49.7406 46.976C49.7406 47.5733 49.5913 48.1013 49.2926 48.56C49.0046 49.008 48.5833 49.36 48.0286 49.616C47.474 49.872 46.818 50 46.0606 50H41.2446V38.832H45.8526C46.61 38.832 47.2606 38.9547 47.8046 39.2C48.3593 39.4453 48.7753 39.7867 49.0526 40.224C49.3406 40.6613 49.4846 41.1573 49.4846 41.712C49.4846 42.3627 49.3086 42.9067 48.9566 43.344C48.6153 43.7813 48.1566 44.0907 47.5806 44.272ZM43.4846 43.44H45.5326C46.066 43.44 46.4766 43.3227 46.7646 43.088C47.0526 42.8427 47.1966 42.496 47.1966 42.048C47.1966 41.6 47.0526 41.2533 46.7646 41.008C46.4766 40.7627 46.066 40.64 45.5326 40.64H43.4846V43.44ZM45.7406 48.176C46.2846 48.176 46.706 48.048 47.0046 47.792C47.314 47.536 47.4686 47.1733 47.4686 46.704C47.4686 46.224 47.3086 45.8507 46.9886 45.584C46.6686 45.3067 46.2366 45.168 45.6926 45.168H43.4846V48.176H45.7406ZM55.7099 50.112C54.6645 50.112 53.7045 49.8667 52.8299 49.376C51.9552 48.8853 51.2619 48.208 50.7499 47.344C50.2379 46.4693 49.9819 45.4827 49.9819 44.384C49.9819 43.296 50.2379 42.32 50.7499 41.456C51.2619 40.5813 51.9552 39.8987 52.8299 39.408C53.7045 38.9173 54.6645 38.672 55.7099 38.672C56.7659 38.672 57.7259 38.9173 58.5899 39.408C59.4645 39.8987 60.1525 40.5813 60.6539 41.456C61.1659 42.32 61.4219 43.296 61.4219 44.384C61.4219 45.4827 61.1659 46.4693 60.6539 47.344C60.1525 48.208 59.4645 48.8853 58.5899 49.376C57.7152 49.8667 56.7552 50.112 55.7099 50.112ZM55.7099 48.112C56.3819 48.112 56.9739 47.9627 57.4859 47.664C57.9979 47.3547 58.3979 46.9173 58.6859 46.352C58.9739 45.7867 59.1179 45.1307 59.1179 44.384C59.1179 43.6373 58.9739 42.9867 58.6859 42.432C58.3979 41.8667 57.9979 41.4347 57.4859 41.136C56.9739 40.8373 56.3819 40.688 55.7099 40.688C55.0379 40.688 54.4405 40.8373 53.9179 41.136C53.4059 41.4347 53.0059 41.8667 52.7179 42.432C52.4299 42.9867 52.2859 43.6373 52.2859 44.384C52.2859 45.1307 52.4299 45.7867 52.7179 46.352C53.0059 46.9173 53.4059 47.3547 53.9179 47.664C54.4405 47.9627 55.0379 48.112 55.7099 48.112ZM68.9364 47.872H64.4884L63.7524 50H61.4004L65.4164 38.816H68.0244L72.0404 50H69.6724L68.9364 47.872ZM68.3284 46.08L66.7124 41.408L65.0964 46.08H68.3284ZM78.3015 50L75.8375 45.648H74.7815V50H72.5415V38.832H76.7335C77.5975 38.832 78.3335 38.9867 78.9415 39.296C79.5495 39.5947 80.0028 40.0053 80.3015 40.528C80.6108 41.04 80.7655 41.616 80.7655 42.256C80.7655 42.992 80.5522 43.6587 80.1255 44.256C79.6988 44.8427 79.0642 45.248 78.2215 45.472L80.8935 50H78.3015ZM74.7815 43.968H76.6535C77.2615 43.968 77.7148 43.824 78.0135 43.536C78.3122 43.2373 78.4615 42.8267 78.4615 42.304C78.4615 41.792 78.3122 41.3973 78.0135 41.12C77.7148 40.832 77.2615 40.688 76.6535 40.688H74.7815V43.968ZM85.6955 38.832C86.8688 38.832 87.8982 39.0613 88.7835 39.52C89.6795 39.9787 90.3675 40.6347 90.8475 41.488C91.3382 42.3307 91.5835 43.312 91.5835 44.432C91.5835 45.552 91.3382 46.5333 90.8475 47.376C90.3675 48.208 89.6795 48.8533 88.7835 49.312C87.8982 49.7707 86.8688 50 85.6955 50H81.7915V38.832H85.6955ZM85.6155 48.096C86.7888 48.096 87.6955 47.776 88.3355 47.136C88.9755 46.496 89.2955 45.5947 89.2955 44.432C89.2955 43.2693 88.9755 42.3627 88.3355 41.712C87.6955 41.0507 86.7888 40.72 85.6155 40.72H84.0315V48.096H85.6155Z" fill="black"/>
</svg>
