<svg width="708" height="1024" viewBox="0 0 708 1024" fill="none" xmlns="http://www.w3.org/2000/svg">
<g opacity="0.05" clip-path="url(#clip0_7324_5252)">
<mask id="mask0_7324_5252" style="mask-type:luminance" maskUnits="userSpaceOnUse" x="0" y="-1" width="1182" height="1049">
<path d="M1181.61 -0.209229H0V1047.88H1181.61V-0.209229Z" fill="white"/>
</mask>
<g mask="url(#mask0_7324_5252)">
<g opacity="0.1">
<path d="M-6.36792 -0.209229L-4.71697 581.367L-6.36792 1046H920.05L880.899 1023.62L553.539 974.663L514.86 1014.41L530.898 979.474L508.492 971.943L483.256 1011.69L457.313 1007.3L481.133 972.362L433.492 964.412L408.963 1001.65L389.388 997.256L420.284 963.157L384.435 955.207L375.473 971.734L150.944 951.442L143.161 932.614L200.001 860.858L370.284 879.268L433.492 860.858L627.832 874.456L812.974 746.635H850.238L793.398 828.85L711.323 893.493L836.087 911.275L964.389 955.626L1147.64 916.296L1152.36 1001.65L1092.46 1046H1179.25L1181.61 -2.85117e-05L-6.36792 -0.209229ZM231.133 761.07L149.293 791.194L165.566 829.896L149.293 856.046L165.566 859.394L133.019 899.978L2.59437 654.796L11.085 632.202L15.3303 569.652L60.6134 547.058L134.199 425.722L66.9813 342.67L114.151 96.6504L113.208 202.296L156.604 257.944L128.066 339.113L169.104 433.672L104.01 569.652L67.2172 684.921L116.746 710.234L155.661 689.732L150.944 719.439L98.3493 756.467L125.708 770.902L245.991 719.439L231.133 761.07Z" fill="#828282"/>
</g>
<path d="M404.482 827.595C403.775 824.039 321.699 465.47 291.274 347.272C268.397 258.362 192.218 -8.368 191.51 -11.0876L198.35 -12.552C199.057 -9.8324 275.237 256.898 298.114 346.017C328.539 464.424 410.614 822.993 411.322 826.549L404.482 827.595Z" fill="white" stroke="white" stroke-width="2" stroke-miterlimit="10"/>
<path d="M217.453 853.327L216.51 852.908C215.331 852.49 92.4531 804.374 50.9435 790.985C2.35849 775.086 -147.878 735.756 -149.293 735.338L-147.17 729.271C-145.755 729.69 4.71698 769.228 53.5379 785.128C93.3965 798.098 207.076 842.239 218.633 846.842C242.218 843.494 654.011 784.709 794.342 778.642C880.427 774.877 1135.62 789.312 1150.95 790.148L1180.9 780.944L1183.26 786.801L1151.89 796.424H1151.18C1148.59 796.215 882.549 781.153 794.577 784.918C651.181 790.985 223.114 852.699 218.633 853.118L217.453 853.327Z" fill="white" stroke="white" stroke-width="2" stroke-miterlimit="10"/>
<path d="M-29.717 1558.54L-36.085 1555.82C-34.6699 1552.89 115.095 1266.29 191.982 1146.63C266.039 1031.36 413.68 830.106 490.096 730.526C542.69 662.118 630.662 551.242 708.257 453.546C760.144 388.275 808.964 326.77 843.87 282.42C900.71 209.618 1069.81 -11.2968 1071.47 -13.598L1077.36 -10.0416C1075.71 -7.74042 906.606 213.175 849.766 285.976C815.097 330.327 766.04 392.041 714.153 457.102C636.558 554.798 548.351 665.465 495.992 733.874C419.577 833.662 271.935 1034.49 198.114 1149.76C121.463 1269.22 -28.3019 1555.61 -29.717 1558.54Z" fill="white" stroke="white" stroke-width="2" stroke-miterlimit="10"/>
<path d="M698.351 470.491L297.642 103.972L334.671 -12.7612L341.51 -11.0876L305.425 102.299L703.304 466.098L698.351 470.491Z" fill="white" stroke="white" stroke-width="2" stroke-miterlimit="10"/>
<path d="M483.269 43.9136L246.217 172.861L249.916 178.211L486.968 49.2639L483.269 43.9136Z" fill="white"/>
<path d="M846.936 324.678L725.474 162.339L491.039 54.8104L490.803 54.6012L404.246 -10.2508L407.312 -13.3888L493.633 51.254L728.776 159.201L729.011 159.62L850.946 322.377L846.936 324.678Z" fill="white"/>
<path d="M386.558 181.167L383.492 178.029L454.718 119.035L412.501 86.8179L415.567 83.6799L461.794 118.826L386.558 181.167Z" fill="white"/>
<path d="M736.776 174.138L563.35 309.352L566.464 312.494L739.89 177.281L736.776 174.138Z" fill="white"/>
<path d="M676.312 136.369L586.653 216.009L591.66 220.444L681.318 140.803L676.312 136.369Z" fill="white"/>
<path d="M636.087 255.642L488.209 142.465L558.728 82.634L562.03 85.5628L495.284 142.256L639.153 252.504L636.087 255.642Z" fill="white"/>
<path d="M449.45 65.0108L446.806 68.4756L524.538 115.152L527.182 111.687L449.45 65.0108Z" fill="white"/>
<path d="M503.919 57.3524L471.78 80.3215L474.739 83.5796L506.879 60.6105L503.919 57.3524Z" fill="white"/>
<path d="M533.369 71.1058L501.479 98.432L504.757 101.441L536.646 74.1149L533.369 71.1058Z" fill="white"/>
<path d="M459.693 117.244L456.77 120.528L490.462 144.119L493.384 140.835L459.693 117.244Z" fill="white"/>
<path d="M634.193 178.072L631.125 181.25L681.997 219.898L685.065 216.72L634.193 178.072Z" fill="white"/>
<path d="M657.792 156.706L655.023 160.093L711.925 196.688L714.694 193.3L657.792 156.706Z" fill="white"/>
<path d="M415.902 206.777L272.313 264.282L274.254 268.096L417.843 210.59L415.902 206.777Z" fill="white"/>
<path d="M451.652 561.074L335.614 240.998L340.095 239.534L454.718 556.263L513.681 546.221L514.624 550.405L451.652 561.074Z" fill="white"/>
<path d="M360.277 300.931L228.9 324.149L229.822 328.252L361.199 305.034L360.277 300.931Z" fill="white"/>
<path d="M369.767 327.431L322.509 337.429L323.603 341.499L370.862 331.501L369.767 327.431Z" fill="white"/>
<path d="M385.208 370.472L341.783 379.391L342.847 383.468L386.272 374.548L385.208 370.472Z" fill="white"/>
<path d="M397.027 404.03L280.271 432.169L281.508 436.207L398.264 408.068L397.027 404.03Z" fill="white"/>
<path d="M411.211 442.56L292.953 472.152L294.234 476.178L412.491 446.587L411.211 442.56Z" fill="white"/>
<path d="M477.333 263.769L374.031 344.574L378.71 349.281L482.012 268.476L477.333 263.769Z" fill="white"/>
<path d="M528.98 332.884L402.972 422.231L405.918 425.5L531.926 336.152L528.98 332.884Z" fill="white"/>
<path d="M425.709 481.16L422.407 475.512L512.03 434.718L582.549 360.033L690.568 267.567L695.521 272.169L587.502 364.426L516.511 439.738L425.709 481.16Z" fill="white"/>
<path d="M511.558 439.32L458.256 385.556L405.19 324.051L410.85 320.285L463.68 381.79L516.747 435.136L511.558 439.32Z" fill="white"/>
<path d="M294.812 552.706L279.482 540.573L282.548 537.435L296.463 548.313L341.982 541.2L440.567 524.674L516.747 472.374L626.653 399.99L629.483 403.338L519.577 475.721L442.454 528.439L441.982 528.648L342.69 545.175L294.812 552.706Z" fill="white"/>
<path d="M313.208 630.11L293.397 551.033L297.878 549.987L316.746 625.09L359.671 617.14L360.614 621.115L313.208 630.11Z" fill="white"/>
<path d="M305.897 590.99L304.718 587.015L350.001 576.764L452.596 556.681L453.775 560.656L351.18 580.739L305.897 590.99Z" fill="white"/>
<path d="M541.039 518.398L516.039 475.093L495.992 445.596L500.001 443.504L520.049 473.001L545.285 516.515L541.039 518.398Z" fill="white"/>
<path d="M544.178 405.508L540.952 408.56L575.19 437.036L578.417 433.984L544.178 405.508Z" fill="white"/>
<path d="M803.091 264.056L690.171 392.342L695.748 396.204L808.668 267.919L803.091 264.056Z" fill="white"/>
<path d="M770.364 240.922L655.558 342.944L660.566 347.378L775.372 245.356L770.364 240.922Z" fill="white"/>
<path d="M597.331 285.466L592.01 289.602L627.608 325.628L632.929 321.492L597.331 285.466Z" fill="white"/>
<path d="M626.721 262.506L623.266 265.354L658.751 299.22L662.206 296.371L626.721 262.506Z" fill="white"/>
<path d="M659.851 236.66L656.357 239.472L713.731 295.558L717.224 292.746L659.851 236.66Z" fill="white"/>
<path d="M776.653 372.794L736.794 346.854L689.389 317.984L691.983 314.428L739.625 343.506L779.483 369.447L776.653 372.794Z" fill="white"/>
<path d="M119.34 811.905L112.5 810.022L139.859 724.25L218.161 708.769L510.143 706.677V712.953L218.633 715.045L145.519 729.689L119.34 811.905Z" fill="white" stroke="white" stroke-width="2" stroke-miterlimit="10"/>
<path d="M391.29 751.568L296.395 756.263L296.658 760.44L391.553 755.745L391.29 751.568Z" fill="white"/>
<path d="M161.954 827.886L99.095 907.347L102.956 909.75L165.815 830.289L161.954 827.886Z" fill="white"/>
<path d="M135.562 864.326L133.813 868.212L200.399 891.794L202.148 887.908L135.562 864.326Z" fill="white"/>
<path d="M176.652 425.094L149.293 385.765V287.65H154.01V384.51L180.661 422.793L176.652 425.094Z" fill="white"/>
<path d="M272.708 343.085L151.075 365.752L152.045 369.846L273.678 347.179L272.708 343.085Z" fill="white"/>
<path d="M283.177 377.736L162.83 399.764L163.784 403.861L284.13 381.834L283.177 377.736Z" fill="white"/>
<path d="M650.344 422.618L580.626 521.384L584.625 523.605L654.342 424.839L650.344 422.618Z" fill="white"/>
<path d="M604.41 491.403L602.417 495.195L660.984 519.419L662.978 515.627L604.41 491.403Z" fill="white"/>
<path d="M806.842 586.806L641.983 544.757L643.398 540.782L804.955 581.994L902.125 454.173L756.842 398.735L758.729 394.76L909.436 452.5L806.842 586.806Z" fill="white"/>
<path d="M760.379 545.384L670.521 507.101L672.407 503.335L758.728 540.154L804.247 481.788L718.634 446.433L720.757 442.667L811.323 480.114L760.379 545.384Z" fill="white"/>
<path d="M693.646 656.995L692.679 661.09L848.733 690.081L849.7 685.986L693.646 656.995Z" fill="white"/>
<path d="M887.502 781.362H882.785V755.212L682.077 698.728L683.492 694.753L887.502 752.074V781.362Z" fill="white"/>
<path d="M921.701 1060.02L641.039 796.424L525.473 689.523L528.775 686.594L644.341 793.496L925.003 1057.09L921.701 1060.02Z" fill="white"/>
<path d="M568.869 1143.07L567.926 1142.65L297.642 997.884L300.001 994.328L569.577 1138.47L717.926 1091.81L718.634 1092.23L814.625 1127.8L812.738 1131.56L717.691 1096.42L568.869 1143.07Z" fill="white"/>
<path d="M8.49162 307.615L-5.60559 308.712L-5.19328 312.88L8.90393 311.783L8.49162 307.615Z" fill="white"/>
<path d="M37.9719 309.616L37.5002 305.432L66.5098 303.131L66.9815 307.315L37.9719 309.616ZM95.991 305.014L95.5193 300.83L124.529 298.528L125 302.712L95.991 305.014ZM154.246 300.411L153.774 296.227L182.784 293.926L183.255 298.11L154.246 300.411ZM212.265 296.018L211.793 291.834L240.803 289.533L241.274 293.717L212.265 296.018ZM270.52 291.416L270.048 287.232L299.058 284.93L299.529 289.114L270.52 291.416ZM328.539 286.813L328.067 282.629L357.077 280.328L357.548 284.512L328.539 286.813ZM386.086 277.818L382.784 274.68L404.011 256.898L407.313 260.036L386.086 277.818ZM428.539 242.463L425.237 239.325L446.464 221.543L449.766 224.681L428.539 242.463ZM470.992 206.899L467.69 203.761L488.917 185.979L492.218 189.117L470.992 206.899ZM513.445 171.335L510.143 168.197L531.37 150.415L534.671 153.553L513.445 171.335ZM555.898 135.771L552.596 132.633L573.822 114.851L577.124 117.989L555.898 135.771Z" fill="white"/>
<path d="M628.304 103.763L607.313 92.6756L598.351 100.207L595.049 97.278L606.605 87.4456L627.832 98.5332L636.794 91.002L639.86 94.14L628.304 103.763Z" fill="white"/>
<path d="M658.728 78.2408L655.662 75.312L674.53 59.4128L677.832 62.5508L658.728 78.2408ZM696.464 46.6516L693.162 43.5136L712.03 27.6144L715.332 30.7524L696.464 46.6516Z" fill="white"/>
<path d="M776.417 1180.31L751.653 1167.96L754.011 1164.41L778.776 1176.75L776.417 1180.31ZM727.125 1155.62L702.36 1143.28L704.719 1139.72L729.483 1152.06L727.125 1155.62ZM694.813 1117.96L689.624 1093.28L694.341 1092.44L699.53 1117.13L694.813 1117.96ZM684.436 1068.59L680.19 1048.72L689.153 1045.79L690.804 1049.77L685.615 1051.44L689.153 1067.76L684.436 1068.59ZM843.163 1066.5L820.757 1058.34L822.644 1054.58L842.691 1061.9L846.229 1059.81L848.823 1063.36L843.163 1066.5ZM872.172 1049.14L869.578 1045.58L893.163 1031.57L895.757 1035.12L872.172 1049.14ZM794.578 1048.72L768.398 1039.1L770.285 1035.33L796.464 1044.95L794.578 1048.72ZM717.219 1041.19L715.568 1037.21L742.219 1028.64L743.87 1032.61L717.219 1041.19ZM919.106 1021.31L916.512 1017.76L940.097 1003.74L942.691 1007.3L919.106 1021.31ZM966.276 993.491L963.682 989.934L982.078 979.056L981.135 977.592L985.144 975.5L988.21 980.311L966.276 993.491ZM966.748 956.044L964.389 952.278L986.559 937.844L989.389 941.191L970.521 953.534L970.757 953.952L966.748 956.044ZM1012.27 926.128L1009.44 922.781L1032.31 907.928L1035.14 911.275L1012.27 926.128ZM1057.79 896.422L1054.96 893.075L1077.83 878.222L1080.66 881.569L1057.79 896.422ZM1098.12 861.486L1093.87 859.812L1105.66 837.009L1109.91 838.683L1098.12 861.486ZM1121.7 815.88L1117.46 814.206L1129.25 791.404L1133.49 793.077L1121.7 815.88ZM1145.29 770.274L1141.04 768.601L1152.83 745.798L1157.08 747.472L1145.29 770.274ZM1168.87 724.669L1164.63 722.995L1174.77 703.54L1179.01 705.213L1168.87 724.669Z" fill="white"/>
</g>
</g>
<defs>
<clipPath id="clip0_7324_5252">
<rect width="708" height="1024" fill="white"/>
</clipPath>
</defs>
</svg>
